<?xml version="1.0" encoding="UTF-8" standalone="no"?>
<svg
   xmlns:dc="http://purl.org/dc/elements/1.1/"
   xmlns:cc="http://creativecommons.org/ns#"
   xmlns:rdf="http://www.w3.org/1999/02/22-rdf-syntax-ns#"
   xmlns:svg="http://www.w3.org/2000/svg"
   xmlns="http://www.w3.org/2000/svg"
   xmlns:sodipodi="http://sodipodi.sourceforge.net/DTD/sodipodi-0.dtd"
   xmlns:inkscape="http://www.inkscape.org/namespaces/inkscape"
   sodipodi:docname="zup.svg"
   inkscape:version="1.0 (4035a4fb49, 2020-05-01)"
   id="svg8"
   version="1.1"
   viewBox="0 0 210 297"
   height="297mm"
   width="210mm">
  <defs
     id="defs2" />
  <sodipodi:namedview
     inkscape:document-rotation="0"
     inkscape:window-maximized="1"
     inkscape:window-y="-8"
     inkscape:window-x="-8"
     inkscape:window-height="987"
     inkscape:window-width="1680"
     showgrid="false"
     inkscape:current-layer="layer1"
     inkscape:document-units="mm"
     inkscape:cy="674.28571"
     inkscape:cx="-274.28571"
     inkscape:zoom="0.35"
     inkscape:pageshadow="2"
     inkscape:pageopacity="0.0"
     borderopacity="1.0"
     bordercolor="#666666"
     pagecolor="#ffffff"
     id="base" />
  <metadata
     id="metadata5">
    <rdf:RDF>
      <cc:Work
         rdf:about="">
        <dc:format>image/svg+xml</dc:format>
        <dc:type
           rdf:resource="http://purl.org/dc/dcmitype/StillImage" />
        <dc:title />
      </cc:Work>
    </rdf:RDF>
  </metadata>
  <g
     inkscape:label="Layer 2"
     id="layer3"
     inkscape:groupmode="layer">
    <rect
       y="30.148809"
       x="20.410715"
       height="248.70833"
       width="170.08928"
       id="rect72"
       style="fill:#ffd42a;fill-opacity:1;stroke-width:0.26458332" />
  </g>
  <g
     style="mix-blend-mode:multiply"
     id="layer1"
     inkscape:groupmode="layer"
     inkscape:label="Layer 1">
    <ellipse
       style="stroke-width:0.264583"
       ry="49.136902"
       rx="58.586308"
       cy="127.66666"
       cx="107.72321"
       id="path42" />
    <text
       transform="scale(0.97591235,1.0246822)"
       id="text46"
       y="129.51541"
       x="67.796394"
       style="font-style:italic;font-variant:normal;font-weight:bold;font-stretch:normal;font-size:36.3105px;line-height:1.25;font-family:'Comic Sans MS';-inkscape-font-specification:'Comic Sans MS, Bold Italic';font-variant-ligatures:normal;font-variant-caps:normal;font-variant-numeric:normal;font-variant-east-asian:normal;letter-spacing:0px;word-spacing:0px;fill:#ff2a2a;fill-opacity:1;stroke:none;stroke-width:0.907762"
       xml:space="preserve"><tspan
         style="font-style:italic;font-variant:normal;font-weight:bold;font-stretch:normal;font-size:36.3105px;font-family:'Comic Sans MS';-inkscape-font-specification:'Comic Sans MS, Bold Italic';font-variant-ligatures:normal;font-variant-caps:normal;font-variant-numeric:normal;font-variant-east-asian:normal;fill:#ff2a2a;stroke-width:0.907762"
         y="129.51541"
         x="67.796394"
         id="tspan44"
         sodipodi:role="line">Zup</tspan></text>
    <flowRoot
       style="font-style:normal;font-weight:normal;font-size:40px;line-height:1.25;font-family:sans-serif;letter-spacing:0px;word-spacing:0px;fill:#000000;fill-opacity:1;stroke:none"
       id="flowRoot48"
       xml:space="preserve"><flowRegion
         id="flowRegion50"><rect
           y="776.80542"
           x="85.714287"
           height="157.14285"
           width="631.42859"
           id="rect52" /></flowRegion><flowPara
         id="flowPara54" /></flowRoot>
    <text
       transform="scale(0.84684087,1.1808594)"
       id="text58"
       y="217.66061"
       x="38.139309"
       style="font-style:normal;font-weight:normal;font-size:48.6668px;line-height:1.25;font-family:sans-serif;letter-spacing:0px;word-spacing:0px;fill:#000000;fill-opacity:1;stroke:none;stroke-width:1.21667"
       xml:space="preserve"><tspan
         style="stroke-width:1.21667"
         y="217.66061"
         x="38.139309"
         id="tspan56"
         sodipodi:role="line">Comics</tspan></text>
    <path
       inkscape:connector-curvature="0"
       id="path60"
       d="m 126.24405,174.53571 c 2.26785,0 4.53571,0 6.80357,0 0.25198,0 0.50396,0 0.75595,0 0.25198,0 0.57777,-0.17818 0.75595,0 0.17818,0.17818 -0.17818,0.57777 0,0.75596 0.17818,0.17817 0.57778,-0.17819 0.75595,0 0.39843,0.39842 1.25993,1.25992 0.75596,1.5119 -0.50397,0.25198 -1.25992,-1.76389 -0.75596,-1.5119 0.95622,0.4781 1.4126,1.62641 2.26786,2.26785 0.20159,0.15119 0.57777,-0.17818 0.75595,0 0.39843,0.39842 0.44341,1.04308 0.75596,1.51191 1.1578,1.7367 0.43179,-0.32416 2.26785,1.5119 0.17818,0.17818 -0.11269,0.53057 0,0.75595 0.15937,0.31874 0.59659,0.43722 0.75596,0.75596 0.11269,0.22538 -0.17818,0.57777 0,0.75595 0.17817,0.17818 0.57777,-0.17818 0.75595,0 0.17818,0.17818 -0.17818,0.57777 0,0.75595 0.17818,0.17818 0.57777,-0.17818 0.75595,0 0.35636,0.35636 -0.22538,1.06114 0,1.5119 0.15937,0.31874 0.59658,0.43722 0.75595,0.75596 0.11269,0.22538 -0.11269,0.53057 0,0.75595 0.15937,0.31874 0.59659,0.43721 0.75596,0.75595 0.11269,0.22538 -0.17819,0.57778 0,0.75595 0.17817,0.17818 0.57777,-0.17817 0.75595,0 0.17818,0.17818 -0.0797,0.5169 0,0.75596 0.17818,0.53454 0.4434,1.04308 0.75595,1.5119 0.19767,0.29651 0.55828,0.45944 0.75595,0.75596 0.31255,0.46882 0.35753,1.11348 0.75595,1.5119 0.17819,0.17818 0.57778,-0.17818 0.75596,0 0.22367,0.22367 -0.23413,2.55556 0,3.02381 0.15937,0.31874 0.59658,0.43721 0.75595,0.75595 0.11269,0.22538 0,0.50397 0,0.75595 0,0.25199 0,0.50397 0,0.75596 0,1.25992 0,2.51984 0,3.77976 0,0.52579 0.13669,3.50638 0,3.77976 -0.15937,0.31874 -0.50397,0.50397 -0.75595,0.75595 -0.25199,0.25198 -0.50397,0.50397 -0.75596,0.75596 -0.25198,0.25198 -0.50396,0.50396 -0.75595,0.75595 -0.25198,0.25198 -0.50396,1.00793 -0.75595,0.75595 -0.25198,-0.25199 1.11231,-0.75595 0.75595,-0.75595 -1.82522,0 -1.11691,0.93643 -2.26785,1.5119 -0.22539,0.11269 -0.53058,-0.11269 -0.75596,0 -0.31873,0.15937 -0.43721,0.59659 -0.75595,0.75595 -0.22538,0.11269 -0.75595,0.25199 -0.75595,0 0,-0.25198 0.53057,0.11269 0.75595,0 0.31874,-0.15936 0.50397,-0.50397 0.75595,-0.75595 0.25199,-0.25198 0.59659,-0.43721 0.75596,-0.75595 0.11269,-0.22538 0,-0.50397 0,-0.75595 0.25198,-0.25199 0.59658,-0.43722 0.75595,-0.75595 0.22538,-0.45077 -0.35636,-1.15555 0,-1.51191 0.17818,-0.17818 0.57777,0.17818 0.75595,0 0.17818,-0.17818 -0.17818,-0.57777 0,-0.75595 0.17818,-0.17818 0.57777,0.17818 0.75595,0 0.17818,-0.17818 0,-0.50397 0,-0.75596 0.25199,0 0.57777,0.17818 0.75595,0 0.17819,-0.17817 -0.17818,-0.57777 0,-0.75595 0.17819,-0.17818 0.57778,0.17818 0.75596,0 0.17818,-0.17818 -0.17818,-0.57777 0,-0.75595 0.17818,-0.17818 0.57777,0.17818 0.75595,0 0.35636,-0.35636 -0.22538,-1.06114 0,-1.51191 0.83573,-1.67145 0.46918,-0.23458 1.5119,-0.75595 0.31874,-0.15937 0.3996,-0.75595 0.75596,-0.75595 0.25198,0 0,0.50397 0,0.75595 0,0.25199 0.11269,0.53057 0,0.75595 -0.15937,0.31874 -0.43722,0.59659 -0.75596,0.75596 -0.22538,0.11269 -0.53057,-0.11269 -0.75595,0 -0.31874,0.15937 -0.43721,0.59658 -0.75595,0.75595 -0.22538,0.11269 -0.57777,-0.17818 -0.75595,0 -0.17818,0.17818 0.17818,0.57777 0,0.75595 -0.17818,0.17818 -0.57777,-0.17818 -0.75596,0 -0.17818,0.17818 0.17819,0.57778 0,0.75595 -0.0469,2.12857 -1.7044,0.1925 -2.26785,0.75596 -1.00794,1.00793 1.25992,0.75595 -0.75595,0.75595 1.5119,-0.75595 3.02381,-1.5119 4.53571,-2.26786 0.25199,-0.25198 0.43722,-0.59658 0.75595,-0.75595 0.45077,-0.22538 1.06115,0.22538 1.51191,0 0.63747,-0.31874 0.83576,-1.28652 1.5119,-1.5119 0.47811,-0.15937 1.06115,0.22538 1.51191,0 0.45076,-0.22538 -0.22538,-1.06114 0,-1.51191 0.15937,-0.31873 0.59658,-0.43721 0.75595,-0.75595 0.11269,-0.22538 -0.17818,-0.57777 0,-0.75595 1.56409,-1.56409 -0.0611,2.39014 1.51191,-0.75595 0.11269,-0.22539 -0.1127,-0.53058 0,-0.75596 0.15936,-0.31873 0.59658,-0.43721 0.75595,-0.75595 0.93093,-1.86187 -2.19433,0.68243 0.75595,-2.26786 0.17818,-0.17818 0.57777,0.17818 0.75595,0 0.17818,-0.17818 -0.17818,-0.57777 0,-0.75595 0.17818,-0.17818 0.57778,0.17818 0.75595,0 0.17818,-0.17818 -0.17817,-0.57777 0,-0.75595 0.17818,-0.17818 0.53058,0.11269 0.75596,0 0.31873,-0.15937 0.50397,-0.50397 0.75595,-0.75595 0.25198,-0.25199 0.59658,-0.43722 0.75595,-0.75596 0.23976,-0.47951 -0.24554,-3.28867 0,-3.77976 1.57305,-3.14609 -0.0522,0.80814 1.51191,-0.75595 0.17818,-0.17818 0,-0.50397 0,-0.75595 0,-0.5258 -0.13669,-3.50639 0,-3.77976 0.15937,-0.31874 0.59658,-0.43722 0.75595,-0.75596 0.10073,-0.20146 0,-4.19372 0,-4.53571 0,-3.77976 0,-7.55952 0,-11.33929 0,-0.27761 0.0304,-2.99339 0,-3.02381 -0.17818,-0.17818 -0.57777,0.17818 -0.75595,0 -1.016,-1.016 1.016,-0.4959 0,-1.5119 -0.17818,-0.17818 -0.57778,0.17818 -0.75596,0 -0.17818,-0.17818 -0.25198,-0.75595 0,-0.75595 0.25199,0 0,1.00793 0,0.75595 0,-0.50397 0,-1.00794 0,-1.51191 0,-0.25198 0.1127,-0.53057 0,-0.75595 -0.15936,-0.31874 -0.59658,-0.43721 -0.75595,-0.75595 -0.11269,-0.22538 0.11269,-0.53057 0,-0.75595 -0.20187,-0.40374 -1.86987,-1.86988 -2.26786,-2.26786 -0.25198,-0.25198 -0.50396,-0.50397 -0.75595,-0.75595 -0.25198,-0.25199 -0.43721,-0.59659 -0.75595,-0.75595 -0.22538,-0.1127 -0.50397,0 -0.75595,0"
       style="fill:none;stroke:#000000;stroke-width:0.264583px;stroke-linecap:butt;stroke-linejoin:miter;stroke-opacity:1" />
    <path
       transform="scale(0.26458333)"
       inkscape:connector-curvature="0"
       id="path62"
       d="m 576.19436,755.59761 c -1.02756,-2.67777 -3.08057,-4.11945 -4.56225,-3.20372 -1.48168,0.91573 -3.55911,-4.10421 -4.6165,-11.15542 -1.05739,-7.0512 -3.77194,-14.35524 -6.03232,-16.23119 -2.26038,-1.87595 -7.49719,-10.59595 -11.63734,-19.37778 -10.51282,-22.29912 -37.65828,-48.80102 -50.07917,-48.89191 -8.5719,-0.0627 -8.07667,-0.55744 6.60425,-6.59731 27.0456,-11.12681 51.83146,-27.94093 73.59675,-49.92625 19.84115,-20.04172 21.16251,-20.86672 26.16716,-16.33758 9.62283,8.70854 14.36995,30.25597 14.2969,64.89437 -0.0375,17.77616 -1.42903,37.46315 -3.09232,43.74887 -1.66328,6.28571 -3.74157,15.19907 -4.61841,19.80747 -0.87684,4.6084 -5.27102,11.47269 -9.76483,15.25398 -4.49381,3.78129 -8.20515,8.36793 -8.24743,10.19253 -0.0422,1.82459 -3.69246,7.67686 -8.11153,13.00503 -6.77519,8.169 -8.32754,8.92439 -9.90296,4.81891 z"
       style="fill:#000000;fill-opacity:1;stroke-width:2.85714" />
  </g>
</svg>
